<svg width="611" height="394" viewBox="0 0 611 394" fill="none" xmlns="http://www.w3.org/2000/svg">
<ellipse cx="417.033" cy="348.561" rx="11.6511" ry="11.6511" fill="#7C12C8"/>
<path d="M52.5382 315.035C52.8915 315.244 53.1871 315.489 53.425 315.785C53.6629 316.08 53.7783 316.433 53.7783 316.837C53.7783 317.162 53.6918 317.5 53.5115 317.854L49.2361 325.136C48.7386 325.813 48.2051 326.152 47.6499 326.152C47.4697 326.152 47.2678 326.116 47.0299 326.037C46.7919 325.965 46.5612 325.857 46.3233 325.705C44.4704 324.379 42.4877 323.355 40.368 322.619C38.2555 321.884 36.006 321.516 33.6195 321.516C30.6202 321.516 27.8733 322.086 25.3715 323.211C22.8697 324.343 20.7139 325.878 18.8898 327.825C17.0657 329.772 15.6454 332.05 14.636 334.66C13.6194 337.277 13.1147 340.089 13.1147 343.088C13.1147 346.059 13.6194 348.842 14.636 351.444C15.6526 354.047 17.0585 356.318 18.8826 358.265C20.7067 360.212 22.8697 361.733 25.3643 362.851C27.8661 363.968 30.613 364.523 33.6123 364.523C35.9988 364.523 38.2699 364.155 40.4256 363.427C42.5814 362.699 44.5785 361.661 46.4026 360.334C46.6405 360.161 46.8785 360.046 47.1308 359.981C47.3759 359.923 47.5922 359.88 47.7653 359.844C48.2627 359.844 48.7819 360.168 49.3082 360.817L53.6701 368.179C53.8432 368.539 53.9369 368.864 53.9369 369.152C53.9369 369.57 53.8143 369.902 53.562 370.169C53.3096 370.435 53.0213 370.68 52.704 370.918C49.9354 372.771 46.965 374.206 43.771 375.223C40.5843 376.239 37.2245 376.744 33.6916 376.744C30.577 376.744 27.5849 376.34 24.7154 375.554C21.8531 374.761 19.1638 373.622 16.6692 372.151C14.1746 370.68 11.8963 368.928 9.85587 366.888C7.80827 364.84 6.05628 362.577 4.58547 360.096C3.11466 357.609 1.98271 354.934 1.18963 352.072C0.396542 349.202 0 346.217 0 343.095C0 339.974 0.396542 336.982 1.18963 334.119C1.98271 331.257 3.11466 328.56 4.58547 326.044C6.05628 323.528 7.80827 321.25 9.85587 319.188C11.8963 317.133 14.1746 315.374 16.6692 313.924C19.171 312.468 21.8531 311.336 24.7154 310.521C27.5849 309.714 30.577 309.31 33.6916 309.31C37.1884 309.31 40.5122 309.8 43.6629 310.788C46.8136 311.776 49.7696 313.182 52.5382 315.035Z" fill="#7C12C8"/>
<path fill-rule="evenodd" clip-rule="evenodd" d="M64.0737 340.118C63.3816 342.598 63.0355 345.179 63.0355 347.854C63.0355 350.529 63.3816 353.103 64.0737 355.576C64.7587 358.049 65.7392 360.341 67.0009 362.476C68.2627 364.61 69.7767 366.564 71.5431 368.323C73.3096 370.089 75.2634 371.596 77.4048 372.843C79.5533 374.098 81.8532 375.064 84.3046 375.756C86.7559 376.448 89.3226 376.794 91.9975 376.794C94.6363 376.794 97.1958 376.441 99.6616 375.756C102.127 375.071 104.434 374.098 106.561 372.843C108.688 371.596 110.635 370.089 112.401 368.323C114.161 366.556 115.667 364.61 116.936 362.476C118.205 360.341 119.179 358.042 119.871 355.576C120.563 353.11 120.909 350.529 120.909 347.854C120.909 345.179 120.563 342.605 119.871 340.118C119.179 337.63 118.198 335.316 116.936 333.168C115.675 331.019 114.161 329.072 112.401 327.32C110.635 325.576 108.688 324.076 106.561 322.821C104.434 321.574 102.127 320.608 99.6616 319.916C97.1958 319.224 94.6435 318.87 91.9975 318.87C89.3226 318.87 86.7631 319.231 84.3046 319.916C81.846 320.601 79.5461 321.574 77.4048 322.821C75.2634 324.076 73.3096 325.576 71.5431 327.32C69.7767 329.08 68.2627 331.019 67.0009 333.168C65.7392 335.316 64.7659 337.63 64.0737 340.118ZM76.7057 354.537C75.8838 352.439 75.4728 350.211 75.4728 347.854C75.4728 345.525 75.8838 343.312 76.7057 341.192C77.5348 339.079 78.6812 337.227 80.152 335.619C81.6228 334.018 83.3604 332.742 85.3791 331.783C87.3979 330.824 89.5897 330.348 91.9762 330.348C94.2977 330.348 96.4535 330.824 98.4362 331.783C100.419 332.742 102.142 334.018 103.577 335.619C105.012 337.219 106.144 339.079 106.951 341.192C107.759 343.312 108.162 345.532 108.162 347.854C108.162 350.211 107.759 352.439 106.951 354.537C106.144 356.643 105.019 358.474 103.577 360.031C102.135 361.596 100.419 362.829 98.4362 363.744C96.4535 364.653 94.2977 365.107 91.9762 365.107C89.5897 365.107 87.3907 364.653 85.3791 363.744C83.3604 362.829 81.6228 361.596 80.152 360.031C78.674 358.474 77.5276 356.643 76.7057 354.537Z" fill="#7C12C8"/>
<path d="M132.575 320.305C133.325 319.937 134.255 319.757 135.379 319.757H139.835C140.686 319.757 141.32 320.038 141.731 320.594C142.142 321.156 142.423 321.776 142.568 322.454L143.051 326.707C143.728 325.705 144.507 324.746 145.387 323.809C146.273 322.879 147.319 322.064 148.545 321.351C149.763 320.644 151.191 320.074 152.82 319.649C154.457 319.224 156.36 319.007 158.53 319.007C160.585 319.007 162.452 319.202 164.132 319.606C165.812 320.01 167.319 320.601 168.674 321.379C170.03 322.158 171.248 323.117 172.337 324.249C173.426 325.388 174.413 326.693 175.293 328.171C176 326.787 176.951 325.518 178.163 324.364C179.367 323.218 180.758 322.23 182.33 321.423C183.902 320.615 185.632 319.988 187.514 319.541C189.396 319.094 191.349 318.87 193.375 318.87C196.843 318.87 199.9 319.505 202.532 320.774C205.163 322.035 207.363 323.773 209.129 325.979C210.895 328.186 212.222 330.759 213.123 333.694C214.024 336.635 214.471 339.786 214.471 343.139V372.562C214.471 373.615 214.219 374.422 213.722 374.963C213.224 375.504 212.503 375.778 211.566 375.778H204.861C203.685 375.778 202.9 375.562 202.503 375.114C202.107 374.675 201.905 373.896 201.905 372.778V343.175C201.905 341.617 201.681 340.103 201.241 338.633C200.794 337.162 200.117 335.864 199.187 334.732C198.256 333.6 197.096 332.692 195.704 332C194.313 331.307 192.64 330.961 190.701 330.961C189.078 330.961 187.579 331.25 186.202 331.819C184.817 332.389 183.628 333.211 182.626 334.292C181.623 335.359 180.837 336.65 180.268 338.164C179.698 339.678 179.403 341.358 179.403 343.211V372.598C179.403 374.718 178.451 375.771 176.54 375.771H169.792C168.617 375.771 167.838 375.554 167.456 375.107C167.074 374.667 166.879 373.889 166.879 372.771V343.204C166.879 341.675 166.663 340.183 166.238 338.734C165.812 337.277 165.149 335.972 164.255 334.833C163.361 333.687 162.207 332.764 160.794 332.05C159.381 331.343 157.708 330.997 155.769 330.997C154.413 330.997 153.065 331.257 151.71 331.769C150.354 332.281 149.129 333.023 148.025 333.997C146.922 334.97 146.014 336.16 145.315 337.566C144.615 338.971 144.24 340.572 144.211 342.367V373.168C144.211 373.925 143.959 374.552 143.462 375.042C142.964 375.533 142.33 375.771 141.565 375.771H134.291C133.317 375.771 132.604 375.547 132.149 375.086C131.695 374.631 131.464 373.975 131.464 373.125V322.36C131.45 321.358 131.825 320.673 132.575 320.305Z" fill="#7C12C8"/>
<path fill-rule="evenodd" clip-rule="evenodd" d="M229.129 319.685C228.732 319.736 228.343 319.844 227.961 320.017C227.463 320.168 227.074 320.421 226.786 320.767C226.505 321.12 226.368 321.603 226.368 322.223V390.277C226.368 391.077 226.663 391.705 227.269 392.152C227.874 392.613 228.48 392.837 229.1 392.837H236.418C237.298 392.837 237.961 392.584 238.401 392.087C238.848 391.589 239.064 390.984 239.064 390.277V368.799C240.095 369.895 241.191 370.911 242.352 371.87C243.513 372.822 244.782 373.658 246.144 374.387C247.514 375.1 248.992 375.663 250.6 376.081C252.2 376.492 253.96 376.701 255.87 376.701C258.523 376.701 261.061 376.348 263.506 375.656C265.95 374.971 268.214 373.997 270.319 372.75C272.424 371.495 274.327 369.989 276.029 368.229C277.731 366.463 279.201 364.509 280.42 362.361C281.638 360.219 282.583 357.905 283.246 355.439C283.909 352.973 284.241 350.399 284.241 347.725C284.241 345.05 283.909 342.476 283.246 340.003C282.583 337.53 281.638 335.23 280.42 333.081C279.194 330.933 277.731 328.979 276.029 327.234C274.327 325.482 272.424 323.982 270.319 322.735C268.214 321.481 265.957 320.515 263.527 319.822C261.097 319.13 258.545 318.784 255.87 318.784C253.758 318.784 251.847 319.029 250.138 319.512C248.437 319.995 246.88 320.644 245.466 321.473C244.053 322.303 242.77 323.24 241.609 324.3C240.448 325.36 239.352 326.477 238.321 327.652L237.399 322.274C237.247 321.502 236.995 320.868 236.627 320.37C236.259 319.866 235.639 319.621 234.753 319.621H230.297C229.915 319.621 229.525 319.642 229.129 319.685ZM270.42 341.085C271.256 343.183 271.674 345.403 271.674 347.725C271.674 350.075 271.256 352.31 270.42 354.423C269.576 356.542 268.43 358.395 266.974 359.982C265.517 361.568 263.787 362.829 261.79 363.774C259.793 364.718 257.63 365.18 255.308 365.18C252.958 365.18 250.744 364.718 248.668 363.774C246.599 362.837 244.789 361.575 243.246 359.982C241.703 358.395 240.485 356.542 239.583 354.423C238.682 352.303 238.235 350.068 238.235 347.718V347.408C238.264 345.115 238.747 342.937 239.67 340.883C240.593 338.821 241.833 337.018 243.376 335.475C244.919 333.932 246.714 332.699 248.754 331.791C250.802 330.883 252.987 330.428 255.308 330.428C257.63 330.428 259.793 330.89 261.79 331.813C263.794 332.743 265.517 333.99 266.974 335.569C268.437 337.141 269.576 338.979 270.42 341.085Z" fill="#7C12C8"/>
<path d="M294.652 322.36C294.652 321.509 294.94 320.86 295.517 320.42C296.094 319.973 296.721 319.757 297.399 319.757H303.015C303.751 319.757 304.313 319.973 304.703 320.42C305.085 320.86 305.38 321.408 305.575 322.05C305.784 322.699 305.943 323.405 306.022 324.148C306.108 324.898 306.202 325.583 306.332 326.195C306.981 325.287 307.709 324.4 308.517 323.528C309.331 322.663 310.247 321.891 311.278 321.213C312.309 320.536 313.462 319.995 314.753 319.584C316.051 319.166 317.529 318.964 319.173 318.964C320.636 318.964 321.963 319.065 323.145 319.252C324.313 319.44 325.438 319.735 326.512 320.132C327.587 320.528 328.639 321.04 329.67 321.675C330.701 322.309 331.812 323.045 332.98 323.91C333.484 324.234 333.91 324.602 334.277 325.006C334.659 325.424 334.84 325.907 334.84 326.462C334.811 326.693 334.753 326.945 334.696 327.212C334.638 327.479 334.53 327.745 334.342 328.005L330.723 333.744C330.499 334.032 330.218 334.249 329.908 334.379C329.598 334.516 329.331 334.58 329.093 334.58C328.632 334.58 328.178 334.458 327.731 334.227C326.757 333.694 325.885 333.189 325.085 332.727C324.299 332.259 323.52 331.848 322.749 331.509C321.992 331.17 321.199 330.911 320.398 330.716C319.584 330.528 318.682 330.435 317.68 330.435C315.063 330.435 312.85 331.271 311.047 332.951C309.23 334.624 308.019 336.938 307.399 339.872V373.132C307.399 374.898 306.483 375.778 304.652 375.778H297.399C295.568 375.778 294.652 374.898 294.652 373.132V322.36H294.652Z" fill="#7C12C8"/>
<path fill-rule="evenodd" clip-rule="evenodd" d="M342.23 340.118C341.538 342.598 341.192 345.179 341.192 347.854C341.192 350.529 341.545 353.103 342.23 355.576C342.915 358.049 343.895 360.341 345.157 362.476C346.419 364.61 347.933 366.564 349.699 368.323C351.459 370.089 353.412 371.596 355.554 372.843C357.702 374.098 360.002 375.064 362.454 375.756C364.905 376.448 367.472 376.794 370.139 376.794C372.785 376.794 375.338 376.448 377.811 375.756C380.276 375.071 382.576 374.098 384.703 372.843C386.837 371.596 388.784 370.089 390.55 368.323C392.31 366.556 393.824 364.61 395.093 362.476C396.354 360.341 397.328 358.042 398.02 355.576C398.712 353.11 399.058 350.529 399.058 347.854C399.058 345.179 398.705 342.605 398.02 340.118C397.335 337.63 396.354 335.316 395.093 333.168C393.824 331.019 392.31 329.072 390.55 327.32C388.777 325.576 386.837 324.076 384.703 322.821C382.576 321.574 380.276 320.608 377.811 319.916C375.345 319.224 372.785 318.87 370.139 318.87C367.472 318.87 364.912 319.224 362.454 319.916C360.002 320.601 357.702 321.574 355.554 322.821C353.42 324.076 351.459 325.576 349.699 327.32C347.933 329.08 346.419 331.019 345.157 333.168C343.895 335.316 342.922 337.638 342.23 340.118ZM354.869 354.537C354.047 352.439 353.629 350.211 353.629 347.854C353.629 345.525 354.04 343.312 354.869 341.192C355.698 339.079 356.83 337.219 358.308 335.619C359.786 334.018 361.531 332.742 363.542 331.783C365.554 330.824 367.753 330.348 370.132 330.348C372.454 330.348 374.61 330.824 376.592 331.783C378.575 332.742 380.291 334.018 381.733 335.619C383.175 337.219 384.3 339.079 385.107 341.192C385.915 343.312 386.326 345.532 386.326 347.854C386.326 350.211 385.915 352.439 385.107 354.537C384.292 356.643 383.175 358.474 381.733 360.031C380.291 361.596 378.575 362.829 376.592 363.744C374.61 364.653 372.454 365.107 370.132 365.107C367.753 365.107 365.554 364.653 363.542 363.744C361.524 362.829 359.779 361.596 358.308 360.031C356.83 358.474 355.691 356.643 354.869 354.537Z" fill="#7C12C8"/>
<path fill-rule="evenodd" clip-rule="evenodd" d="M440.082 310.277C438.762 310.277 438.099 310.969 438.099 312.346H438.092V373.89C438.092 375.151 438.741 375.786 440.031 375.786H448.87C450.183 375.786 450.846 375.151 450.846 373.89V351.965H465.381C468.323 351.965 471.026 351.388 473.506 350.227C475.979 349.059 478.106 347.516 479.887 345.591C481.668 343.659 483.052 341.453 484.04 338.972C485.028 336.492 485.518 333.911 485.518 331.236C485.518 328.496 485.021 325.872 484.018 323.356C483.016 320.84 481.61 318.619 479.808 316.672C478.005 314.726 475.85 313.175 473.348 312.015C470.846 310.854 468.106 310.277 465.143 310.277H440.082ZM471.927 327.602C472.403 328.763 472.641 329.952 472.641 331.156C472.641 332.425 472.403 333.644 471.92 334.805C471.451 335.973 470.795 337.004 469.959 337.905C469.115 338.799 468.12 339.52 466.974 340.046C465.821 340.58 464.588 340.839 463.261 340.839H450.838V321.473H463.261C464.616 321.473 465.871 321.755 467.017 322.31C468.171 322.872 469.151 323.6 469.981 324.502C470.81 325.403 471.459 326.434 471.927 327.602Z" fill="#7C12C8"/>
<path fill-rule="evenodd" clip-rule="evenodd" d="M551.568 374.473C551.792 374.134 551.9 373.702 551.9 373.168V322.223C551.9 321.719 551.792 321.3 551.568 320.962C551.352 320.623 551.049 320.356 550.667 320.168C550.278 319.974 549.852 319.837 549.384 319.75C548.915 319.657 548.439 319.613 547.978 319.613H543.565C543.126 319.613 542.758 319.649 542.469 319.729C542.174 319.801 541.921 319.945 541.734 320.147C541.547 320.349 541.388 320.623 541.251 320.962C541.114 321.3 540.984 321.74 540.833 322.267L540.213 326.982C539.182 325.778 538.035 324.667 536.766 323.651C535.505 322.641 534.128 321.776 532.65 321.048C531.164 320.334 529.564 319.779 527.862 319.375C526.161 318.979 524.365 318.784 522.484 318.784C519.83 318.784 517.278 319.13 514.827 319.822C512.368 320.507 510.068 321.481 507.92 322.735C505.771 323.982 503.825 325.482 502.073 327.234C500.328 328.986 498.828 330.933 497.574 333.081C496.319 335.23 495.36 337.53 494.668 340.003C493.969 342.469 493.623 345.05 493.623 347.725C493.623 350.399 493.969 352.966 494.668 355.439C495.353 357.912 496.319 360.219 497.574 362.361C498.828 364.502 500.328 366.463 502.073 368.229C503.832 369.989 505.771 371.495 507.92 372.75C510.068 373.997 512.368 374.963 514.827 375.656C517.278 376.348 519.838 376.701 522.484 376.701C524.185 376.701 525.844 376.514 527.459 376.146C529.081 375.778 530.602 375.266 532.051 374.603C533.5 373.94 534.841 373.161 536.089 372.267C537.343 371.373 538.482 370.414 539.513 369.383L539.773 373.132C539.946 373.904 540.22 374.538 540.588 375.028C540.948 375.533 541.604 375.778 542.549 375.778H548.064C548.562 375.778 549.045 375.742 549.499 375.663C549.953 375.591 550.357 375.454 550.71 375.266C551.064 375.079 551.352 374.812 551.568 374.473ZM507.263 354.408C506.442 352.303 506.031 350.075 506.031 347.725C506.031 345.403 506.434 343.182 507.263 341.084C508.093 338.979 509.239 337.133 510.71 335.54C512.181 333.961 513.911 332.692 515.894 331.755C517.876 330.81 520.047 330.342 522.397 330.342C524.776 330.342 527.011 330.81 529.081 331.755C531.157 332.685 532.952 333.954 534.488 335.54C536.016 337.133 537.22 338.979 538.1 341.084C538.987 343.182 539.427 345.403 539.427 347.725C539.427 350.075 538.987 352.303 538.1 354.408C537.22 356.506 536.016 358.352 534.488 359.945C532.952 361.524 531.157 362.786 529.081 363.716C527.011 364.639 524.776 365.1 522.397 365.1C520.047 365.1 517.876 364.639 515.894 363.716C513.904 362.793 512.181 361.532 510.71 359.945C509.232 358.352 508.085 356.506 507.263 354.408Z" fill="#7C12C8"/>
<path d="M583.789 391.964C583.523 392.613 583.184 393.089 582.773 393.399C582.355 393.709 581.814 393.861 581.136 393.861H572.845C572.023 393.861 571.461 393.716 571.151 393.435C570.84 393.154 570.689 392.808 570.689 392.397C570.689 392.195 570.732 391.9 570.804 391.517C570.877 391.128 570.949 390.912 570.999 390.854L578.764 371.049L559.088 323.103C559.088 323.038 559.074 322.995 559.038 322.966V322.569C558.894 322.245 558.822 321.877 558.822 321.466C558.822 320.969 558.995 320.572 559.348 320.277C559.701 319.981 560.249 319.83 560.985 319.83H568.966C570.235 319.83 571.1 320.45 571.569 321.683L572.355 323.759C572.946 325.41 573.609 327.249 574.337 329.296C575.08 331.337 575.837 333.449 576.63 335.627C577.423 337.804 578.231 339.981 579.038 342.173C579.838 344.372 580.61 346.427 581.324 348.345C582.052 350.277 582.701 352.007 583.285 353.557C583.876 355.1 584.337 356.312 584.698 357.198L597.755 321.683C598.022 321.041 598.36 320.565 598.771 320.255C599.19 319.945 599.73 319.794 600.408 319.794H608.699C609.521 319.794 610.084 319.938 610.394 320.212C610.704 320.493 610.855 320.839 610.855 321.257C610.855 321.459 610.812 321.755 610.74 322.137C610.668 322.519 610.596 322.743 610.545 322.8L583.789 391.964Z" fill="#7C12C8"/>
<path d="M429.289 0C430.846 0 431.899 0.692081 432.555 1.6582C433.601 2.86224 434.011 4.56398 432.922 6.34473C424.184 20.995 415.418 35.6602 406.679 50.3105C406.218 51.0964 405.626 51.5867 404.999 51.9111C404.876 51.9758 404.783 52.0258 404.668 52.0762C404.293 52.2132 403.903 52.3 403.492 52.3145C403.326 52.3505 403.225 52.4229 403.038 52.4229H289.029C268.849 52.4229 245.769 48.6953 227.442 59.0703C221.343 62.531 213.347 66.8277 208.502 71.2041C205.856 81.0671 207.103 96.4099 207.103 107.261C207.103 145.408 233.102 182.625 271.883 192.503C287.81 196.54 304.299 195.474 320.615 195.438C359 195.38 397.371 195.271 435.756 195.257C437.299 195.257 438.345 195.95 439.015 196.916C440.039 198.098 440.428 199.814 439.382 201.573C430.644 216.303 421.877 231.047 413.139 245.776C412.238 247.297 410.868 247.875 409.52 247.803C409.376 247.817 409.281 247.89 409.123 247.89H277.435C254.436 247.89 232.36 244.428 213.65 229.655C187.485 208.97 174.998 178.869 174.998 145.935C174.998 117.261 187.327 90.873 208.495 71.1973C214.284 51.053 223.08 30.159 240.758 17.585C260.081 3.85739 280.694 4.50162e-06 303.78 0H429.289ZM417.032 100.952C429.185 100.952 439.037 110.804 439.037 122.957C439.037 135.11 429.185 144.961 417.032 144.961C404.879 144.961 395.028 135.11 395.028 122.957C395.028 110.804 404.879 100.952 417.032 100.952Z" fill="#7C12C8"/>
</svg>
