<svg width="265" height="248" viewBox="0 0 265 248" fill="none" xmlns="http://www.w3.org/2000/svg">
<path d="M254.291 0C255.848 0 256.902 0.692081 257.558 1.6582C258.603 2.86224 259.013 4.56398 257.925 6.34473C249.187 20.995 240.42 35.6602 231.682 50.3105C231.22 51.0964 230.628 51.5867 230.001 51.9111C229.879 51.9758 229.785 52.0258 229.67 52.0762C229.295 52.2132 228.905 52.3 228.494 52.3145C228.329 52.3505 228.227 52.4229 228.04 52.4229H114.031C93.8509 52.4229 70.7718 48.6953 52.4443 59.0703C46.3448 62.531 38.3489 66.8277 33.5039 71.2041C30.8579 81.0671 32.1055 96.4099 32.1055 107.261C32.1055 145.408 58.104 182.625 96.8857 192.503C112.812 196.54 129.301 195.474 145.617 195.438C184.002 195.38 222.374 195.271 260.759 195.257C262.302 195.257 263.347 195.95 264.018 196.916C265.041 198.098 265.43 199.814 264.385 201.573C255.647 216.303 246.88 231.047 238.142 245.776C237.24 247.297 235.871 247.875 234.522 247.803C234.378 247.817 234.284 247.89 234.125 247.89H102.438C79.4381 247.89 57.3619 244.428 38.6523 229.655C12.4878 208.97 0 178.869 0 145.935C9.21791e-06 117.261 12.329 90.873 33.4971 71.1973C39.2865 51.053 48.0824 30.159 65.7607 17.585C85.0831 3.85739 105.696 4.50162e-06 128.782 0H254.291ZM242.034 100.952C254.187 100.952 264.039 110.804 264.039 122.957C264.039 135.11 254.187 144.961 242.034 144.961C229.882 144.961 220.03 135.11 220.03 122.957C220.03 110.804 229.881 100.952 242.034 100.952Z" fill="#7C12C8"/>
</svg>
