<svg width="1347" height="250" viewBox="0 0 1347 250" fill="none" xmlns="http://www.w3.org/2000/svg">
<path d="M254.894 0C256.454 8.77412e-05 257.509 0.698565 258.167 1.67285C259.215 2.88704 259.627 4.60271 258.536 6.39844C249.777 21.1736 240.989 35.9641 232.229 50.7393C231.767 51.5314 231.174 52.0254 230.546 52.3525C230.423 52.4179 230.329 52.4697 230.214 52.5205C229.838 52.6586 229.447 52.7452 229.035 52.7598C228.869 52.7961 228.768 52.8691 228.58 52.8691H114.301C94.0727 52.8691 70.9391 49.11 52.5684 59.5732C46.4544 63.0634 38.4395 67.397 33.583 71.8105C30.9307 81.7576 32.1816 97.2316 32.1816 108.175C32.1818 146.647 58.2418 184.181 97.1152 194.143C113.079 198.214 129.607 197.138 145.962 197.102C184.438 197.043 222.9 196.934 261.376 196.92C262.922 196.92 263.97 197.618 264.643 198.593C265.669 199.785 266.058 201.516 265.011 203.29C256.252 218.145 247.464 233.014 238.705 247.869C237.802 249.403 236.429 249.986 235.077 249.913C234.933 249.928 234.839 250 234.68 250H102.68C79.626 250 57.4969 246.51 38.7432 231.611C12.5168 210.75 9.9712e-05 180.393 0 147.178C0 118.26 12.358 91.6469 33.5762 71.8037C39.3794 51.4879 48.1966 30.4154 65.917 17.7344C85.2849 3.8902 105.947 3.54248e-05 129.087 0H254.894ZM1343.45 97.1162C1344.79 97.1162 1345.71 97.3527 1346.21 97.8018C1346.72 98.2626 1346.96 98.8293 1346.96 99.5146C1346.96 99.8456 1346.89 100.331 1346.78 100.957C1346.66 101.583 1346.54 101.949 1346.46 102.044L1302.88 215.416C1302.45 216.479 1301.9 217.259 1301.23 217.768C1300.55 218.276 1299.67 218.523 1298.56 218.523H1285.06C1283.72 218.523 1282.8 218.287 1282.3 217.826C1281.8 217.365 1281.55 216.798 1281.55 216.125C1281.55 215.794 1281.62 215.309 1281.74 214.683C1281.85 214.045 1281.97 213.69 1282.05 213.596L1294.7 181.131L1262.66 102.54C1262.66 102.434 1262.63 102.363 1262.57 102.315V101.666C1262.34 101.134 1262.22 100.531 1262.22 99.8574C1262.22 99.0421 1262.5 98.3917 1263.08 97.9072C1263.65 97.4229 1264.55 97.1749 1265.74 97.1748H1278.74C1280.81 97.1749 1282.22 98.1913 1282.98 100.212L1284.26 103.616C1285.22 106.322 1286.3 109.336 1287.49 112.692C1288.7 116.037 1289.93 119.499 1291.22 123.068C1292.52 126.637 1293.83 130.207 1295.15 133.8C1296.45 137.404 1297.71 140.772 1298.87 143.916C1300.05 147.083 1301.11 149.919 1302.06 152.46C1303.02 154.989 1303.78 156.975 1304.36 158.429L1325.63 100.212C1326.06 99.1601 1326.61 98.3802 1327.28 97.8721C1327.97 97.364 1328.85 97.1163 1329.95 97.1162H1343.45ZM768.828 95.4609C773.184 95.4609 777.341 96.0286 781.298 97.1631C785.255 98.2976 788.931 99.8811 792.359 101.938C795.788 103.982 798.888 106.44 801.659 109.312C804.43 112.172 806.814 115.375 808.811 118.896C810.795 122.418 812.333 126.189 813.413 130.242C814.493 134.296 815.033 138.515 815.033 142.899C815.033 147.284 814.493 151.503 813.413 155.545C812.333 159.586 810.795 163.38 808.811 166.89C806.826 170.411 804.43 173.614 801.659 176.51C798.888 179.393 795.788 181.864 792.359 183.92C788.931 185.964 785.243 187.56 781.263 188.683C777.282 189.817 773.149 190.396 768.828 190.396C765.716 190.396 762.851 190.054 760.244 189.38C757.626 188.694 755.219 187.772 752.988 186.603C750.769 185.409 748.702 184.038 746.812 182.479C744.921 180.907 743.136 179.24 741.457 177.443V212.649C741.457 213.808 741.105 214.801 740.377 215.616C739.661 216.432 738.58 216.846 737.147 216.846H725.229C724.22 216.846 723.233 216.479 722.247 215.723C721.261 214.99 720.779 213.961 720.779 212.649V101.099C720.779 100.082 721.002 99.29 721.46 98.7109C721.93 98.1437 722.564 97.7306 723.374 97.4824C723.996 97.1988 724.631 97.0212 725.276 96.9385C725.922 96.8676 726.556 96.832 727.179 96.832H734.436C735.88 96.8321 736.889 97.2343 737.488 98.0615C738.087 98.8769 738.499 99.9164 738.745 101.181L740.248 109.997C741.927 108.071 743.712 106.239 745.603 104.502C747.493 102.765 749.583 101.228 751.884 99.8691C754.185 98.5101 756.722 97.4461 759.493 96.6543C762.276 95.8625 765.388 95.4609 768.828 95.4609ZM501.94 95.6035C506.25 95.6035 510.407 96.1828 514.423 97.3174C518.439 98.4519 522.196 100.036 525.66 102.08C529.124 104.136 532.294 106.594 535.171 109.454C538.036 112.326 540.502 115.517 542.557 119.039C544.612 122.561 546.209 126.354 547.336 130.432C548.463 134.509 549.026 138.728 549.026 143.112C549.026 147.497 548.463 151.728 547.336 155.77C546.209 159.811 544.623 163.582 542.557 167.08C540.49 170.578 538.036 173.769 535.171 176.664C532.294 179.559 529.124 182.03 525.66 184.074C522.196 186.131 518.439 187.726 514.423 188.849C510.407 189.971 506.238 190.551 501.94 190.551C497.584 190.551 493.404 189.983 489.412 188.849C485.42 187.714 481.674 186.131 478.175 184.074C474.687 182.03 471.505 179.56 468.628 176.664C465.751 173.781 463.285 170.578 461.23 167.08C459.176 163.582 457.578 159.823 456.463 155.77C455.336 151.716 454.772 147.497 454.772 143.112C454.772 138.728 455.336 134.497 456.463 130.432C457.59 126.354 459.176 122.561 461.23 119.039C463.285 115.517 465.751 112.338 468.628 109.454C471.505 106.594 474.687 104.136 478.175 102.08C481.662 100.036 485.408 98.4401 489.412 97.3174C493.416 96.1947 497.584 95.6035 501.94 95.6035ZM954.929 95.6035C959.238 95.6035 963.407 96.1828 967.423 97.3174C971.439 98.4519 975.185 100.036 978.648 102.08C982.124 104.136 985.282 106.594 988.171 109.454C991.036 112.326 993.502 115.517 995.568 119.039C997.623 122.561 999.22 126.354 1000.34 130.432C1001.45 134.509 1002.03 138.728 1002.03 143.112C1002.03 147.497 1001.46 151.728 1000.34 155.77C999.209 159.811 997.623 163.582 995.568 167.08C993.502 170.578 991.036 173.769 988.171 176.664C985.294 179.559 982.124 182.03 978.648 184.074C975.185 186.131 971.439 187.726 967.423 188.849C963.395 189.983 959.238 190.551 954.929 190.551C950.584 190.551 946.404 189.983 942.412 188.849C938.42 187.714 934.674 186.131 931.175 184.074C927.687 182.03 924.505 179.56 921.64 176.664C918.763 173.781 916.297 170.578 914.242 167.08C912.187 163.582 910.59 159.823 909.475 155.77C908.359 151.716 907.784 147.497 907.784 143.112C907.784 138.728 908.347 134.497 909.475 130.432C910.602 126.366 912.187 122.561 914.242 119.039C916.297 115.517 918.763 112.338 921.64 109.454C924.505 106.594 927.699 104.136 931.175 102.08C934.674 100.036 938.42 98.4401 942.412 97.3174C946.416 96.1829 950.584 95.6035 954.929 95.6035ZM406.982 79.9326C412.677 79.9326 418.09 80.7364 423.222 82.3555C428.353 83.9745 433.167 86.2792 437.676 89.3164C438.251 89.659 438.733 90.0606 439.12 90.5449C439.508 91.0294 439.696 91.6088 439.696 92.2705C439.696 92.8023 439.555 93.3584 439.262 93.9375L432.299 105.873C431.489 106.984 430.619 107.54 429.715 107.54C429.421 107.54 429.092 107.481 428.705 107.351C428.318 107.232 427.942 107.055 427.555 106.807C424.537 104.632 421.308 102.954 417.855 101.749C414.415 100.544 410.752 99.9405 406.865 99.9404C401.98 99.9404 397.506 100.874 393.432 102.718C389.357 104.573 385.847 107.091 382.876 110.281C379.905 113.472 377.592 117.207 375.948 121.485C374.293 125.775 373.471 130.384 373.471 135.301C373.471 140.17 374.293 144.732 375.948 148.998C377.604 153.264 379.894 156.987 382.864 160.178C385.835 163.369 389.357 165.863 393.42 167.694C397.494 169.526 401.969 170.436 406.854 170.436C410.74 170.436 414.439 169.833 417.949 168.64C421.46 167.446 424.713 165.744 427.684 163.569C428.071 163.286 428.459 163.097 428.87 162.99C429.269 162.896 429.622 162.825 429.903 162.766C430.713 162.766 431.559 163.298 432.416 164.361L439.52 176.428C439.801 177.019 439.954 177.551 439.954 178.023C439.954 178.709 439.755 179.252 439.344 179.689C438.933 180.127 438.463 180.529 437.946 180.919C433.437 183.956 428.599 186.307 423.397 187.974C418.208 189.64 412.736 190.468 406.982 190.468C401.91 190.468 397.037 189.806 392.363 188.518C387.702 187.218 383.322 185.35 379.259 182.939C375.196 180.529 371.486 177.657 368.163 174.312C364.828 170.956 361.974 167.245 359.579 163.18C357.184 159.103 355.34 154.718 354.049 150.026C352.757 145.323 352.111 140.43 352.111 135.312C352.111 130.195 352.757 125.29 354.049 120.599C355.34 115.907 357.184 111.487 359.579 107.362C361.974 103.238 364.828 99.503 368.163 96.123C371.486 92.7551 375.196 89.8714 379.259 87.4961C383.333 85.1088 387.702 83.2534 392.363 81.918C397.037 80.5943 401.91 79.9326 406.982 79.9326ZM1203.04 95.4609C1206.1 95.4609 1209.03 95.7807 1211.8 96.4307C1214.57 97.0925 1217.18 98.0019 1219.6 99.1719C1222 100.366 1224.25 101.784 1226.3 103.438C1228.37 105.105 1230.23 106.925 1231.91 108.898L1232.92 101.169C1233.17 100.306 1233.38 99.5857 1233.61 99.0303C1233.83 98.4748 1234.09 98.0252 1234.39 97.6943C1234.7 97.3635 1235.11 97.127 1235.59 97.0088C1236.06 96.8789 1236.66 96.8203 1237.37 96.8203H1244.56C1245.31 96.8203 1246.09 96.8913 1246.85 97.0449C1247.61 97.1867 1248.31 97.4114 1248.94 97.7305C1249.56 98.0377 1250.06 98.4749 1250.41 99.0303C1250.77 99.5857 1250.95 100.271 1250.95 101.099V184.605C1250.95 185.48 1250.77 186.189 1250.41 186.744C1250.06 187.3 1249.59 187.738 1249.01 188.045C1248.44 188.352 1247.78 188.576 1247.04 188.694C1246.3 188.824 1245.51 188.884 1244.7 188.884H1235.72C1234.18 188.884 1233.11 188.482 1232.52 187.654C1231.93 186.851 1231.48 185.81 1231.2 184.546L1230.78 178.401C1229.1 180.091 1227.24 181.663 1225.2 183.128C1223.17 184.593 1220.98 185.87 1218.62 186.957C1216.26 188.044 1213.78 188.884 1211.14 189.486C1208.51 190.089 1205.81 190.396 1203.04 190.396C1198.73 190.396 1194.56 189.817 1190.57 188.683C1186.57 187.548 1182.82 185.964 1179.32 183.92C1175.82 181.864 1172.66 179.393 1169.8 176.51C1166.96 173.614 1164.51 170.4 1162.47 166.89C1160.43 163.38 1158.85 159.598 1157.74 155.545C1156.6 151.491 1156.04 147.284 1156.04 142.899C1156.04 138.515 1156.6 134.284 1157.74 130.242C1158.87 126.189 1160.43 122.418 1162.47 118.896C1164.51 115.375 1166.96 112.183 1169.8 109.312C1172.65 106.44 1175.82 103.982 1179.32 101.938C1182.82 99.8812 1186.57 98.2858 1190.57 97.1631C1194.56 96.0286 1198.72 95.461 1203.04 95.4609ZM1109.66 81.5156C1114.48 81.5156 1118.94 82.4607 1123.02 84.3633C1127.09 86.266 1130.6 88.8072 1133.54 91.998C1136.47 95.1889 1138.76 98.8296 1140.4 102.954C1142.03 107.078 1142.84 111.38 1142.84 115.871C1142.84 120.256 1142.04 124.486 1140.43 128.552C1138.82 132.617 1136.57 136.233 1133.67 139.4C1130.77 142.556 1127.3 145.085 1123.28 147C1119.24 148.903 1114.83 149.848 1110.04 149.848H1086.37V185.787C1086.37 187.855 1085.29 188.896 1083.15 188.896H1068.76C1066.66 188.896 1065.6 187.855 1065.6 185.787V84.9072H1065.61C1065.61 82.65 1066.69 81.5156 1068.84 81.5156H1109.66ZM667.047 95.6035C672.695 95.6035 677.674 96.6436 681.96 98.7236C686.246 100.792 689.827 103.64 692.704 107.256C695.581 110.872 697.741 115.091 699.209 119.901C700.677 124.723 701.404 129.888 701.404 135.384V183.613C701.404 185.339 700.994 186.662 700.184 187.549C699.373 188.435 698.199 188.884 696.673 188.884H685.752C683.838 188.884 682.559 188.529 681.913 187.797C681.267 187.076 680.938 185.8 680.938 183.968V135.442C680.938 132.89 680.574 130.408 679.857 127.997C679.129 125.586 678.026 123.459 676.512 121.604C674.997 119.748 673.106 118.259 670.84 117.124C668.574 115.99 665.849 115.423 662.69 115.423C660.049 115.423 657.606 115.896 655.363 116.829C653.109 117.763 651.172 119.11 649.54 120.883C647.908 122.632 646.628 124.747 645.7 127.229C644.773 129.71 644.291 132.465 644.291 135.502V183.673C644.291 187.147 642.74 188.872 639.629 188.872H628.639C626.725 188.872 625.456 188.518 624.834 187.785C624.212 187.064 623.895 185.788 623.895 183.956V135.49C623.895 132.985 623.542 130.538 622.85 128.163C622.157 125.776 621.076 123.636 619.62 121.769C618.164 119.89 616.286 118.377 613.984 117.207C611.683 116.049 608.958 115.481 605.8 115.481C603.592 115.481 601.397 115.907 599.189 116.746C596.982 117.585 594.986 118.803 593.189 120.398C591.393 121.994 589.913 123.944 588.774 126.248C587.635 128.553 587.025 131.176 586.978 134.119V184.606C586.977 185.847 586.566 186.875 585.756 187.679C584.946 188.482 583.913 188.872 582.668 188.872H570.82C569.235 188.872 568.073 188.506 567.333 187.75C566.593 187.005 566.218 185.93 566.218 184.535V101.323C566.194 99.6807 566.804 98.5578 568.025 97.9551C569.247 97.3524 570.762 97.0576 572.594 97.0576H579.85C581.235 97.0576 582.269 97.5178 582.938 98.4277C583.608 99.3495 584.065 100.367 584.3 101.478L585.087 108.45C586.191 106.807 587.459 105.236 588.892 103.699C590.336 102.175 592.038 100.839 594.034 99.6689C596.018 98.5108 598.344 97.5771 600.997 96.8799C603.662 96.1826 606.763 95.8282 610.297 95.8281C613.643 95.8281 616.685 96.1468 619.421 96.8086C622.157 97.4704 624.611 98.4404 626.818 99.7168C629.026 100.993 631.01 102.565 632.783 104.42C634.556 106.287 636.165 108.426 637.598 110.849C638.748 108.58 640.299 106.5 642.271 104.609C644.232 102.73 646.499 101.111 649.059 99.7871C651.618 98.4636 654.436 97.4358 657.501 96.7031C660.566 95.9704 663.747 95.6035 667.047 95.6035ZM871.924 95.7568C874.307 95.7568 876.468 95.9223 878.394 96.2295C880.296 96.5368 882.128 97.0209 883.878 97.6709C885.627 98.3209 887.341 99.1603 889.021 100.2C890.7 101.24 892.508 102.446 894.41 103.864C895.232 104.396 895.925 104.998 896.523 105.66C897.146 106.346 897.439 107.138 897.439 108.048C897.392 108.426 897.299 108.839 897.205 109.276C897.111 109.713 896.935 110.151 896.63 110.576L890.735 119.983C890.371 120.456 889.913 120.811 889.408 121.023C888.903 121.248 888.469 121.354 888.081 121.354C887.33 121.354 886.59 121.153 885.862 120.775C884.277 119.901 882.856 119.074 881.553 118.317C880.273 117.549 879.004 116.876 877.748 116.32C876.515 115.765 875.223 115.34 873.92 115.021C872.593 114.713 871.125 114.56 869.493 114.56C865.231 114.56 861.626 115.93 858.69 118.684C855.731 121.425 853.759 125.219 852.749 130.029V184.547C852.749 187.442 851.258 188.884 848.275 188.884H836.463C833.481 188.884 831.989 187.442 831.989 184.547V101.323C831.989 99.9287 832.459 98.8645 833.398 98.1436C834.338 97.411 835.359 97.0566 836.463 97.0566H845.61C846.808 97.0567 847.723 97.4111 848.357 98.1436C848.98 98.8644 849.461 99.7628 849.778 100.814C850.119 101.878 850.378 103.037 850.507 104.254C850.648 105.483 850.8 106.606 851.012 107.61C852.068 106.121 853.254 104.667 854.569 103.237C855.896 101.819 857.387 100.555 859.066 99.4443C860.746 98.3334 862.625 97.4471 864.727 96.7734C866.84 96.0881 869.247 95.7569 871.924 95.7568ZM767.912 114.548C764.131 114.548 760.573 115.292 757.238 116.781C753.915 118.27 750.991 120.291 748.479 122.82C745.966 125.349 743.946 128.304 742.443 131.684C740.94 135.052 740.153 138.621 740.106 142.379V142.888C740.107 146.74 740.835 150.404 742.303 153.878C743.771 157.352 745.755 160.39 748.268 162.99C750.78 165.602 753.728 167.67 757.098 169.206C760.479 170.754 764.084 171.511 767.912 171.511C771.693 171.511 775.215 170.754 778.468 169.206C781.72 167.658 784.539 165.59 786.911 162.99C789.283 160.39 791.15 157.352 792.523 153.878C793.885 150.415 794.566 146.752 794.566 142.899C794.566 139.094 793.885 135.454 792.523 132.015C791.15 128.564 789.295 125.55 786.911 122.974C784.539 120.385 781.732 118.341 778.468 116.816C775.215 115.304 771.693 114.548 767.912 114.548ZM501.905 114.418C498.019 114.418 494.449 115.198 491.161 116.77C487.874 118.341 485.044 120.433 482.648 123.057C480.253 125.692 478.385 128.73 477.035 132.192C475.697 135.667 475.027 139.295 475.027 143.112C475.027 146.977 475.697 150.629 477.035 154.068C478.374 157.519 480.241 160.521 482.648 163.073C485.044 165.638 487.873 167.659 491.161 169.16C494.437 170.649 498.019 171.394 501.905 171.394C505.686 171.394 509.197 170.649 512.426 169.16C515.655 167.659 518.45 165.638 520.799 163.073C523.147 160.521 524.979 157.519 526.294 154.068C527.609 150.629 528.267 146.977 528.267 143.112C528.267 139.307 527.609 135.667 526.294 132.192C524.979 128.73 523.135 125.68 520.799 123.057C518.462 120.433 515.655 118.341 512.426 116.77C509.197 115.198 505.686 114.418 501.905 114.418ZM954.917 114.418C951.042 114.418 947.461 115.198 944.185 116.77C940.909 118.341 938.067 120.433 935.66 123.057C933.253 125.68 931.409 128.73 930.059 132.192C928.708 135.667 928.039 139.295 928.039 143.112C928.039 146.977 928.72 150.629 930.059 154.068C931.397 157.519 933.253 160.521 935.66 163.073C938.056 165.638 940.897 167.659 944.185 169.16C947.461 170.649 951.042 171.394 954.917 171.394C958.698 171.394 962.209 170.649 965.438 169.16C968.667 167.659 971.462 165.638 973.811 163.073C976.159 160.521 977.979 157.519 979.306 154.068C980.621 150.629 981.29 146.977 981.29 143.112C981.29 139.307 980.621 135.667 979.306 132.192C977.991 128.73 976.159 125.68 973.811 123.057C971.462 120.433 968.667 118.341 965.438 116.77C962.209 115.198 958.698 114.418 954.917 114.418ZM1202.9 114.405C1199.07 114.405 1195.54 115.174 1192.31 116.722C1189.08 118.258 1186.26 120.338 1183.87 122.926C1181.47 125.538 1179.6 128.564 1178.25 132.015C1176.9 135.454 1176.25 139.093 1176.25 142.898C1176.25 146.751 1176.91 150.404 1178.25 153.854C1179.59 157.293 1181.46 160.319 1183.87 162.931C1186.26 165.531 1189.07 167.599 1192.31 169.111C1195.54 170.624 1199.07 171.381 1202.9 171.381C1206.77 171.381 1210.41 170.624 1213.78 169.111C1217.17 167.587 1220.09 165.519 1222.59 162.931C1225.08 160.319 1227.04 157.293 1228.47 153.854C1229.92 150.404 1230.63 146.751 1230.63 142.898C1230.63 139.093 1229.92 135.454 1228.47 132.015C1227.04 128.564 1225.08 125.538 1222.59 122.926C1220.09 120.326 1217.17 118.246 1213.78 116.722C1210.41 115.174 1206.77 114.405 1202.9 114.405ZM1031.3 125.172C1041.78 125.172 1050.28 133.722 1050.28 144.27C1050.28 154.817 1041.78 163.368 1031.3 163.368C1020.82 163.368 1012.33 154.817 1012.33 144.27C1012.33 133.722 1020.82 125.172 1031.3 125.172ZM243.228 100.962C255.6 100.962 265.631 111.007 265.631 123.397C265.631 135.788 255.6 145.834 243.228 145.834C230.855 145.834 220.825 135.788 220.825 123.397C220.825 111.007 230.855 100.962 243.228 100.962ZM1086.36 131.612H1106.59C1108.75 131.612 1110.76 131.187 1112.64 130.312C1114.5 129.45 1116.13 128.268 1117.5 126.803C1118.86 125.326 1119.93 123.635 1120.69 121.721C1121.48 119.818 1121.87 117.82 1121.87 115.74C1121.87 113.767 1121.48 111.817 1120.7 109.914C1119.94 108 1118.88 106.309 1117.53 104.832C1116.18 103.355 1114.59 102.162 1112.71 101.24C1110.84 100.33 1108.8 99.8691 1106.59 99.8691H1086.36V131.612Z" fill="#7C12C8"/>
</svg>
