<svg width="296" height="409" viewBox="0 0 296 409" fill="none" xmlns="http://www.w3.org/2000/svg">
<g style="mix-blend-mode:luminosity" opacity="0.6">
<path d="M184.331 64.2882L158.071 86.4956C155.088 89.0183 153.452 92.7877 153.646 96.6896L155.318 130.304C155.579 135.54 158.773 140.181 163.57 142.294L198.285 157.585C202.387 159.392 207.157 158.735 210.618 155.886L237.626 133.655C240.834 131.014 242.611 127.016 242.421 122.865L240.876 89.0655C240.636 83.8033 237.432 79.1328 232.609 77.014L198.849 62.1827C194.005 60.0544 188.371 60.8714 184.331 64.2882Z" fill="#EAEAEF"/>
<mask id="mask0_1_187" style="mask-type:alpha" maskUnits="userSpaceOnUse" x="153" y="61" width="90" height="98">
<path d="M184.331 64.2882L158.071 86.4956C155.088 89.0183 153.452 92.7876 153.646 96.6896L155.318 130.304C155.579 135.54 158.773 140.181 163.57 142.294L198.285 157.585C202.387 159.392 207.157 158.735 210.618 155.886L237.626 133.655C240.834 131.014 242.611 127.016 242.421 122.865L240.876 89.0655C240.636 83.8033 237.432 79.1327 232.609 77.014L198.849 62.1827C194.005 60.0544 188.371 60.8714 184.331 64.2882Z" fill="#EAEAEF"/>
</mask>
<g mask="url(#mask0_1_187)">
<g filter="url(#filter0_f_1_187)">
<path d="M195.38 114.779L161.504 100.55C159.272 99.6123 156.824 101.319 156.931 103.737L158.043 128.805C158.223 132.856 160.708 136.446 164.436 138.041L198.301 152.534C200.532 153.488 202.996 151.788 202.895 149.363L201.838 124.07C201.668 119.983 199.151 116.363 195.38 114.779Z" fill="#E5E3E2"/>
</g>
<g filter="url(#filter1_f_1_187)">
<path d="M154.366 91.7887C151.507 95.378 151.042 97.36 151.707 100.853L200.325 120.803C205.835 121.897 210.843 117.065 207.916 113.916L154.366 91.7887Z" fill="#F1F0EF"/>
</g>
<g filter="url(#filter2_f_1_187)">
<path d="M208.204 116.72C203.713 115.776 198.846 115.547 195.98 117.848L197.598 157.442C201.138 158.986 206.871 159.127 209.822 156.313L208.204 116.72Z" fill="#8C8C8C" fill-opacity="0.42"/>
</g>
</g>
<g filter="url(#filter3_f_1_187)">
<path d="M236.414 90.7202L212.008 111.525C209.474 113.685 208.108 116.914 208.322 120.236L210.23 149.894C210.334 151.51 212.23 152.324 213.474 151.286L237.005 131.636C239.509 129.546 240.905 126.415 240.788 123.156L239.676 92.1554C239.616 90.5012 237.673 89.6464 236.414 90.7202Z" fill="#CBE1DE"/>
</g>
<path d="M179.61 231.13L197.936 279.933C200.017 285.477 199.395 291.674 196.253 296.694L169.184 339.935C164.968 346.671 157.31 350.45 149.399 349.698L92.1585 344.262C85.3941 343.619 79.5679 339.222 77.0949 332.893L57.797 283.507C55.5047 277.64 56.1098 271.036 59.4303 265.684L86.4677 222.103C90.6771 215.318 98.3702 211.507 106.318 212.27L161.956 217.609C169.94 218.375 176.79 223.622 179.61 231.13Z" fill="#EAEAEF"/>
<mask id="mask1_1_187" style="mask-type:alpha" maskUnits="userSpaceOnUse" x="56" y="212" width="144" height="138">
<path d="M179.61 231.13L197.936 279.933C200.017 285.477 199.395 291.674 196.253 296.694L169.184 339.935C164.968 346.671 157.31 350.45 149.399 349.698L92.1585 344.262C85.3941 343.619 79.5679 339.222 77.0949 332.893L57.797 283.507C55.5047 277.64 56.1098 271.036 59.4303 265.684L86.4677 222.103C90.6771 215.318 98.3702 211.507 106.318 212.27L161.956 217.609C169.94 218.375 176.79 223.622 179.61 231.13Z" fill="#EAEAEF"/>
</mask>
<g mask="url(#mask1_1_187)">
<g filter="url(#filter4_f_1_187)">
<path d="M127.656 289.77L183.002 295.992C186.649 296.401 188.626 300.47 186.696 303.591L166.687 335.937C163.454 341.164 157.512 344.077 151.399 343.431L95.8723 337.566C92.214 337.18 90.2114 333.108 92.1384 329.974L112.239 297.288C115.487 292.007 121.494 289.077 127.656 289.77Z" fill="#E5E3E2"/>
</g>
<g filter="url(#filter5_f_1_187)">
<path d="M198.926 289.677C200.054 296.54 199.204 299.506 195.741 303.636L116.659 294.083C108.559 291.457 105.505 281.361 111.707 279.358L198.926 289.677Z" fill="#F1F0EF"/>
</g>
<g filter="url(#filter6_f_1_187)">
<path d="M109.249 282.853C115.889 284.925 122.499 288.221 124.59 293.386L93.1719 344.579C87.3459 344.006 79.6551 339.953 77.8314 334.047L109.249 282.853Z" fill="#8C8C8C" fill-opacity="0.42"/>
</g>
</g>
<g filter="url(#filter7_f_1_187)">
<path d="M91.1493 227.592L108.059 273.168C109.814 277.9 109.235 283.182 106.495 287.42L82.0393 325.251C80.7062 327.313 77.5955 326.988 76.718 324.695L60.1117 281.295C58.3448 276.677 58.8119 271.502 61.377 267.276L85.772 227.079C87.0737 224.934 90.2766 225.24 91.1493 227.592Z" fill="#CBE1DE"/>
</g>
</g>
<defs>
<filter id="filter0_f_1_187" x="150.331" y="93.6913" width="59.1632" height="65.7095" filterUnits="userSpaceOnUse" color-interpolation-filters="sRGB">
<feFlood flood-opacity="0" result="BackgroundImageFix"/>
<feBlend mode="normal" in="SourceGraphic" in2="BackgroundImageFix" result="shape"/>
<feGaussianBlur stdDeviation="3.29861" result="effect1_foregroundBlur_1_187"/>
</filter>
<filter id="filter1_f_1_187" x="144.843" y="85.1914" width="70.5343" height="42.3664" filterUnits="userSpaceOnUse" color-interpolation-filters="sRGB">
<feFlood flood-opacity="0" result="BackgroundImageFix"/>
<feBlend mode="normal" in="SourceGraphic" in2="BackgroundImageFix" result="shape"/>
<feGaussianBlur stdDeviation="3.29861" result="effect1_foregroundBlur_1_187"/>
</filter>
<filter id="filter2_f_1_187" x="182.785" y="102.848" width="40.2326" height="68.8792" filterUnits="userSpaceOnUse" color-interpolation-filters="sRGB">
<feFlood flood-opacity="0" result="BackgroundImageFix"/>
<feBlend mode="normal" in="SourceGraphic" in2="BackgroundImageFix" result="shape"/>
<feGaussianBlur stdDeviation="6.59722" result="effect1_foregroundBlur_1_187"/>
</filter>
<filter id="filter3_f_1_187" x="201.702" y="83.6467" width="45.6905" height="74.6993" filterUnits="userSpaceOnUse" color-interpolation-filters="sRGB">
<feFlood flood-opacity="0" result="BackgroundImageFix"/>
<feBlend mode="normal" in="SourceGraphic" in2="BackgroundImageFix" result="shape"/>
<feGaussianBlur stdDeviation="3.29861" result="effect1_foregroundBlur_1_187"/>
</filter>
<filter id="filter4_f_1_187" x="81.3913" y="279.669" width="116.057" height="73.851" filterUnits="userSpaceOnUse" color-interpolation-filters="sRGB">
<feFlood flood-opacity="0" result="BackgroundImageFix"/>
<feBlend mode="normal" in="SourceGraphic" in2="BackgroundImageFix" result="shape"/>
<feGaussianBlur stdDeviation="5" result="effect1_foregroundBlur_1_187"/>
</filter>
<filter id="filter5_f_1_187" x="98.4108" y="269.358" width="110.984" height="44.2784" filterUnits="userSpaceOnUse" color-interpolation-filters="sRGB">
<feFlood flood-opacity="0" result="BackgroundImageFix"/>
<feBlend mode="normal" in="SourceGraphic" in2="BackgroundImageFix" result="shape"/>
<feGaussianBlur stdDeviation="5" result="effect1_foregroundBlur_1_187"/>
</filter>
<filter id="filter6_f_1_187" x="57.8307" y="262.853" width="86.7598" height="101.726" filterUnits="userSpaceOnUse" color-interpolation-filters="sRGB">
<feFlood flood-opacity="0" result="BackgroundImageFix"/>
<feBlend mode="normal" in="SourceGraphic" in2="BackgroundImageFix" result="shape"/>
<feGaussianBlur stdDeviation="10" result="effect1_foregroundBlur_1_187"/>
</filter>
<filter id="filter7_f_1_187" x="49.0553" y="215.635" width="70.002" height="120.988" filterUnits="userSpaceOnUse" color-interpolation-filters="sRGB">
<feFlood flood-opacity="0" result="BackgroundImageFix"/>
<feBlend mode="normal" in="SourceGraphic" in2="BackgroundImageFix" result="shape"/>
<feGaussianBlur stdDeviation="5" result="effect1_foregroundBlur_1_187"/>
</filter>
</defs>
</svg>
